# xmcd CD database file
#
# Track frame offsets:
#	150
#	15693
#	35485
#	42803
#	57066
#	74476
#	92672
#	108097
#	124032
#	144438
#	162732
#	180822
#	201359
#	222723
#	239073
#	259569
#	275525
#	289328
#	316502
#	330254
#
# Disc length: 4718 seconds
#
# Revision: 0
# Processed by: cddbd v1.5.2PL0 Copyright (c) Steve Scherf et al.
# Submitted via: CDex 1.79
#
DISCID=23126c14
DTITLE=GerogetowN - Kein TiteSmooth Jazz Remix l
DYEAR=2002
DGENRE=Jazz
TTITLE0=GerorgetowN - Autumn
TTITLE1=GerorgetowN - Bright night
TTITLE2=GerorgetowN - Chill
TTITLE3=GerorgetowN - Club seventy three
TTITLE4=GerorgetowN - Every Minute counts
TTITLE5=GerorgetowN - First Snow
TTITLE6=GerorgetowN - Fleeting
TTITLE7=GerorgetowN - Go on
TTITLE8=GerorgetowN - Nightswimming
TTITLE9=GerorgetowN - Not of this World
TTITLE10=GerorgetowN - On Day like Today
TTITLE11=GerorgetowN - Pacific Coast Highway
TTITLE12=GerorgetowN - Solitude 2
TTITLE13=GerorgetowN - Swaying
TTITLE14=GerorgetowN - The Best you can do
TTITLE15=GerorgetowN - The Funkmaster
TTITLE16=GerorgetowN - The last Day of Summer
TTITLE17=GerorgetowN - Wide open spell
TTITLE18=GerorgetowN - Wedding Song
TTITLE19=GerorgetowN - The Magic of my first Hifi
EXTD=YEAR: 2002
EXTT0=
EXTT1=
EXTT2=
EXTT3=
EXTT4=
EXTT5=
EXTT6=
EXTT7=
EXTT8=
EXTT9=
EXTT10=
EXTT11=
EXTT12=
EXTT13=
EXTT14=
EXTT15=
EXTT16=
EXTT17=
EXTT18=
EXTT19=
PLAYORDER=
